HIERARCHY
ROOT Hips
{
  OFFSET 5.72205e-005 65.662 3.42586
  CHANNELS 6 Xposition Yposition Zposition Zrotation Xrotation Yrotation
  JOINT Chest
  {
    OFFSET 0 8.7983 -4.7612
    CHANNELS 3 Zrotation Xrotation Yrotation
    JOINT Chest2
    {
      OFFSET 0 8.0291 0.4195
      CHANNELS 3 Zrotation Xrotation Yrotation
      JOINT Chest3
      {
        OFFSET 0 9.9351 -2.2114
        CHANNELS 3 Zrotation Xrotation Yrotation
        JOINT Neck
        {
          OFFSET 0 22.3885 -0.4656
          CHANNELS 3 Zrotation Xrotation Yrotation
          JOINT Head
          {
            OFFSET -0.0001 12.643 3.4389
            CHANNELS 3 Zrotation Xrotation Yrotation
            End Site
            {
              OFFSET 0.0001 17.6655 0.5274
            }
          }
        }
        JOINT LeftCollar
        {
          OFFSET 2.2603 21.606 7.4023
          CHANNELS 3 Zrotation Xrotation Yrotation
          JOINT LeftShoulder
          {
            OFFSET 13.5163 -1.1332 -5.0146
            CHANNELS 3 Zrotation Xrotation Yrotation
            JOINT LeftElbow
            {
              OFFSET -0.0995 -28.05 -0.2431
              CHANNELS 3 Zrotation Xrotation Yrotation
              JOINT LeftWrist
              {
                OFFSET 0.0679 -23.3996 -0.1402
                CHANNELS 3 Zrotation Xrotation Yrotation
                JOINT LeftFinger1
                {
                  OFFSET 0.7932 -9.069 2.5189
                  CHANNELS 3 Zrotation Xrotation Yrotation
                  JOINT LeftFinger11
                  {
                    OFFSET -0.8272 -3.3923 0.5977
                    CHANNELS 3 Zrotation Xrotation Yrotation
                    JOINT LeftFinger12
                    {
                      OFFSET -0.5649 -2.3158 0.4082
                      CHANNELS 3 Zrotation Xrotation Yrotation
                      End Site
                      {
                        OFFSET -0.4919 -1.6479 0.2673
                      }
                    }
                  }
                }
                JOINT LeftFinger2
                {
                  OFFSET 0.9159 -9.2044 0.2193
                  CHANNELS 3 Zrotation Xrotation Yrotation
                  JOINT LeftFinger21
                  {
                    OFFSET 0.0117 -4.1944 -0.0248
                    CHANNELS 3 Zrotation Xrotation Yrotation
                    JOINT LeftFinger22
                    {
                      OFFSET 0.0071 -2.3249 -0.0142
                      CHANNELS 3 Zrotation Xrotation Yrotation
                      End Site
                      {
                        OFFSET -0.1475 -2.0882 0.0028
                      }
                    }
                  }
                }
                JOINT LeftFinger3
                {
                  OFFSET 0.6113 -8.7231 -2.0637
                  CHANNELS 3 Zrotation Xrotation Yrotation
                  JOINT LeftFinger31
                  {
                    OFFSET -0.1927 -3.8059 -0.2383
                    CHANNELS 3 Zrotation Xrotation Yrotation
                    JOINT LeftFinger32
                    {
                      OFFSET -0.1091 -2.1688 -0.1362
                      CHANNELS 3 Zrotation Xrotation Yrotation
                      End Site
                      {
                        OFFSET -0.2358 -1.9176 -0.0906
                      }
                    }
                  }
                }
                JOINT LeftFinger4
                {
                  OFFSET -0.6151 -8.0947 -3.5641
                  CHANNELS 3 Zrotation Xrotation Yrotation
                  JOINT LeftFinger41
                  {
                    OFFSET -0.4882 -2.341 -0.6462
                    CHANNELS 3 Zrotation Xrotation Yrotation
                    JOINT LeftFinger42
                    {
                      OFFSET -0.3575 -1.7167 -0.4742
                      CHANNELS 3 Zrotation Xrotation Yrotation
                      End Site
                      {
                        OFFSET -0.4187 -1.5237 -0.3496
                      }
                    }
                  }
                }
                JOINT LeftFinger0
                {
                  OFFSET -1.42 -1.8761 1.4223
                  CHANNELS 3 Zrotation Xrotation Yrotation
                  JOINT LeftFinger01
                  {
                    OFFSET -1.1471 -3.4929 2.6334
                    CHANNELS 3 Zrotation Xrotation Yrotation
                    JOINT LeftFinger02
                    {
                      OFFSET -0.823 -2.3 1.6571
                      CHANNELS 3 Zrotation Xrotation Yrotation
                      End Site
                      {
                        OFFSET -0.5822 -1.6914 1.1582
                      }
                    }
                  }
                }
              }
            }
          }
        }
        JOINT RightCollar
        {
          OFFSET -2.2603 21.606 7.4023
          CHANNELS 3 Zrotation Xrotation Yrotation
          JOINT RightShoulder
          {
            OFFSET -13.5187 -1.1334 -5.0155
            CHANNELS 3 Zrotation Xrotation Yrotation
            JOINT RightElbow
            {
              OFFSET 0.0994 -28.0499 -0.2431
              CHANNELS 3 Zrotation Xrotation Yrotation
              JOINT RightWrist
              {
                OFFSET -0.0679 -23.3996 -0.1402
                CHANNELS 3 Zrotation Xrotation Yrotation
                JOINT RightFinger1
                {
                  OFFSET -0.7932 -9.0691 2.5189
                  CHANNELS 3 Zrotation Xrotation Yrotation
                  JOINT RightFinger11
                  {
                    OFFSET 0.8272 -3.3923 0.5977
                    CHANNELS 3 Zrotation Xrotation Yrotation
                    JOINT RightFinger12
                    {
                      OFFSET 0.565 -2.3158 0.4082
                      CHANNELS 3 Zrotation Xrotation Yrotation
                      End Site
                      {
                        OFFSET 0.4919 -1.6479 0.2673
                      }
                    }
                  }
                }
                JOINT RightFinger2
                {
                  OFFSET -0.916 -9.2044 0.2193
                  CHANNELS 3 Zrotation Xrotation Yrotation
                  JOINT RightFinger21
                  {
                    OFFSET -0.0117 -4.1944 -0.0248
                    CHANNELS 3 Zrotation Xrotation Yrotation
                    JOINT RightFinger22
                    {
                      OFFSET -0.0071 -2.3249 -0.0142
                      CHANNELS 3 Zrotation Xrotation Yrotation
                      End Site
                      {
                        OFFSET 0.1475 -2.0882 0.0028
                      }
                    }
                  }
                }
                JOINT RightFinger3
                {
                  OFFSET -0.6113 -8.7231 -2.0637
                  CHANNELS 3 Zrotation Xrotation Yrotation
                  JOINT RightFinger31
                  {
                    OFFSET 0.1927 -3.8059 -0.2383
                    CHANNELS 3 Zrotation Xrotation Yrotation
                    JOINT RightFinger32
                    {
                      OFFSET 0.1091 -2.1688 -0.1362
                      CHANNELS 3 Zrotation Xrotation Yrotation
                      End Site
                      {
                        OFFSET 0.2358 -1.9176 -0.0906
                      }
                    }
                  }
                }
                JOINT RightFinger4
                {
                  OFFSET 0.6151 -8.0947 -3.564
                  CHANNELS 3 Zrotation Xrotation Yrotation
                  JOINT RightFinger41
                  {
                    OFFSET 0.4882 -2.341 -0.6462
                    CHANNELS 3 Zrotation Xrotation Yrotation
                    JOINT RightFinger42
                    {
                      OFFSET 0.3574 -1.7166 -0.4742
                      CHANNELS 3 Zrotation Xrotation Yrotation
                      End Site
                      {
                        OFFSET 0.4187 -1.5237 -0.3496
                      }
                    }
                  }
                }
                JOINT RightFinger0
                {
                  OFFSET 1.4199 -1.8761 1.4221
                  CHANNELS 3 Zrotation Xrotation Yrotation
                  JOINT RightFinger01
                  {
                    OFFSET 1.1472 -3.4929 2.6336
                    CHANNELS 3 Zrotation Xrotation Yrotation
                    JOINT RightFinger02
                    {
                      OFFSET 0.8229 -2.3 1.6571
                      CHANNELS 3 Zrotation Xrotation Yrotation
                      End Site
                      {
                        OFFSET 0.5822 -1.6914 1.1582
                      }
                    }
                  }
                }
              }
            }
          }
        }
      }
    }
  }
  JOINT RightHip
  {
    OFFSET -9.412 3.9771 -0.7758
    CHANNELS 3 Zrotation Xrotation Yrotation
    JOINT RightKnee
    {
      OFFSET -0.7531 -40.938 0
      CHANNELS 3 Zrotation Xrotation Yrotation
      JOINT RightAnkle
      {
        OFFSET 0 -40.1986 0
        CHANNELS 3 Zrotation Xrotation Yrotation
        JOINT RightToe
        {
          OFFSET 0 -4.4182 9.239
          CHANNELS 3 Zrotation Xrotation Yrotation
          End Site
          {
            OFFSET 0 0 6.1981
          }
        }
      }
    }
  }
  JOINT LeftHip
  {
    OFFSET 9.4119 3.9773 -0.7758
    CHANNELS 3 Zrotation Xrotation Yrotation
    JOINT LeftKnee
    {
      OFFSET 0.7532 -40.9383 0
      CHANNELS 3 Zrotation Xrotation Yrotation
      JOINT LeftAnkle
      {
        OFFSET 0 -40.1986 0
        CHANNELS 3 Zrotation Xrotation Yrotation
        JOINT LeftToe
        {
          OFFSET 0 -4.4182 9.239
          CHANNELS 3 Zrotation Xrotation Yrotation
          End Site
          {
            OFFSET 0 0 6.1981
          }
        }
      }
    }
  }
}
MOTION
Frames:	5
Frame Time:	0.0333333
5.72205e-005 65.662 3.42586 0 0 -0 0 0 -0 0 0 -0 0 0 -0 0 0 -0 0 0 -0 0 0 -12.5014 88.1196 14.2451 10.6914 -0.00160068 -0.00239207 0.000740045 -8.4365e-005 7.00714e-005 -9.52055e-007 9.93923e-017 -1.98785e-016 -1.59028e-015 9.93923e-017 -5.96354e-016 -1.59028e-015 -9.93923e-017 -5.96354e-016 -1.59028e-015 9.93923e-017 -1.98785e-016 -1.59028e-015 -0.0128176 0.00232552 8.52707e-005 9.93923e-017 5.96354e-016 -0 9.93923e-017 -1.98785e-016 -1.59028e-015 -0.0160551 0.00299681 0.000857156 -2.48481e-016 0 3.18055e-015 9.93923e-017 -1.98785e-016 -1.59028e-015 -0.0125865 0.0031206 0.00282719 0 1.98785e-016 -0 9.93923e-017 -1.98785e-016 -1.59028e-015 9.93923e-017 -5.96354e-016 -1.59028e-015 -9.93923e-017 -5.96354e-016 -1.59028e-015 -0.865644 0.16582 7.03859 -88.0329 10.2057 -10.5567 0.0015593 -0.00248883 -0.000788628 7.87605e-005 4.10553e-005 1.24965e-005 -3.97569e-016 -7.95139e-016 3.18055e-015 -1.98785e-016 -3.97569e-016 3.18055e-015 -1.98785e-016 0 3.18055e-015 -3.97569e-016 -7.95139e-016 3.18055e-015 0.0129473 0.00231697 -8.70038e-005 9.93923e-017 -7.95139e-016 1.59028e-015 -3.97569e-016 -7.95139e-016 3.18055e-015 0.0163314 0.00303369 -0.000872333 3.97569e-016 7.95139e-016 -3.18055e-015 -3.97569e-016 -7.95139e-016 3.18055e-015 0.0145763 0.00367772 -0.00326275 9.93923e-017 -3.97569e-016 -0 -3.97569e-016 -7.95139e-016 3.18055e-015 -1.98785e-016 -3.97569e-016 3.18055e-015 -1.98785e-016 0 3.18055e-015 3.42482 1.32465 -0.0626183 0.000117508 0.717283 0.000978199 -3.4257 -2.04197 -0.0604716 6.47761e-025 0 -0 -3.42483 1.34017 0.0627307 -0.000193936 0.682302 -0.0013703 3.42574 -2.02253 0.0595886 -8.45714e-024 0 -7.40531e-025 
5.54862 23.8121 17.4786 19.3894 17.3912 130.34 -0.266495 11.2925 0.0555551 -0.561332 22.5846 0.17105 -0.561333 22.5846 0.17104 2.29955e-005 11.9099 -1.03046e-005 1.08318e-005 8.19055 -3.68297e-006 10.1597 1.84228 -28.5901 47.452 -12.2263 13.0115 -4.86558 0.962158 -0.784489 -0.788376 -17.1215 8.93035 -1.27222e-014 1.59028e-015 -6.36111e-015 -9.54166e-015 7.95139e-016 -3.18055e-015 -9.54166e-015 2.38542e-015 -7.95139e-015 -1.27222e-014 1.59028e-015 -6.36111e-015 -0.0127877 0.0023225 9.46839e-005 -1.89107e-006 2.57702e-006 -9.64615e-006 -1.27222e-014 1.59028e-015 -6.36111e-015 -0.0160985 0.00299843 0.000862395 -3.18055e-015 3.18055e-015 1.59028e-015 -1.27222e-014 1.59028e-015 -6.36111e-015 -0.0125705 0.00312135 0.00283822 -3.94748e-008 -1.30701e-006 8.37294e-007 -1.27222e-014 1.59028e-015 -6.36111e-015 -9.54166e-015 7.95139e-016 -3.18055e-015 -9.54166e-015 2.38542e-015 -7.95139e-015 -10.0866 2.79037 23.8521 -47.2749 -14.5995 -9.81147 4.53987 0.893126 0.898663 0.662486 -17.6241 -10.5845 1.01553e-007 7.37913e-010 -8.24232e-007 1.70087e-005 2.22174e-006 1.4424e-006 -1.17283e-014 2.38542e-015 -1.59028e-015 1.01553e-007 7.37913e-010 -8.24232e-007 0.0129414 0.0023146 -8.46629e-005 -1.27222e-014 2.38542e-015 -3.18055e-015 1.01553e-007 7.37913e-010 -8.24232e-007 0.0162833 0.00302466 -0.000869349 -1.19271e-015 -7.95139e-016 3.18055e-015 1.01553e-007 7.37913e-010 -8.24232e-007 0.0146127 0.00368707 -0.00326618 -4.77083e-015 -7.95139e-016 3.18055e-015 1.01553e-007 7.37913e-010 -8.24232e-007 1.70087e-005 2.22174e-006 1.4424e-006 -1.17283e-014 2.38542e-015 -1.59028e-015 -23.6063 -42.8926 -60.5012 7.94318 40.5906 36.3317 -13.7184 23.1018 -25.868 -6.36111e-015 3.18055e-015 4.77083e-015 23.5801 -42.8773 60.4687 -7.96478 40.5778 -36.3137 13.706 23.0982 25.8595 -1.59028e-015 9.54166e-015 6.36111e-015 
-3.02891 5.13998 24.3669 -10.2012 36.7695 -163.268 -0.36022 16.3217 -0.0225859 -0.76324 32.6434 0.0719077 -0.763231 32.6432 0.0719011 3.14887e-005 16.9684 7.1256e-006 -1.21219e-007 11.6648 -3.0792e-006 14.946 2.83974 -35.8027 31.2818 -25.6755 13.6765 -7.05945 1.35496 -1.17173 -1.71829 -24.4301 12.2174 3.97569e-016 -1.59028e-015 1.27222e-014 1.05786e-007 -8.54402e-007 -1.39873e-008 -3.07961e-006 -1.40008e-006 3.69999e-006 3.97569e-016 -1.59028e-015 1.27222e-014 -0.0128608 0.00233312 8.8504e-005 1.05786e-007 -8.54424e-007 -1.3983e-008 3.97569e-016 -1.59028e-015 1.27222e-014 -0.0160455 0.00299279 0.000857978 4.91381e-007 -1.59212e-006 4.23993e-006 3.97569e-016 -1.59028e-015 1.27222e-014 -0.0126125 0.00312712 0.00282995 3.85449e-007 -2.55461e-006 4.25384e-006 3.97569e-016 -1.59028e-015 1.27222e-014 1.05786e-007 -8.54402e-007 -1.39873e-008 -3.07961e-006 -1.40008e-006 3.69999e-006 -14.6587 4.03186 31.3868 -30.0429 -26.6519 -9.30931 6.58464 1.25597 1.34429 1.5553 -25.1747 -14.4773 -8.82781e-032 -1.59028e-015 -3.18055e-015 3.97569e-016 -1.59028e-015 -3.18055e-015 3.97569e-016 -7.95139e-016 -3.18055e-015 -8.82781e-032 -1.59028e-015 -3.18055e-015 0.012958 0.00231592 -8.64776e-005 -1.19271e-015 -3.18055e-015 3.18055e-015 -8.82781e-032 -1.59028e-015 -3.18055e-015 0.0163199 0.00303314 -0.00087243 3.97569e-016 -7.95139e-016 3.18055e-015 -8.82781e-032 -1.59028e-015 -3.18055e-015 0.014606 0.00368775 -0.00326468 7.95139e-016 -1.59028e-015 1.27222e-014 -8.82781e-032 -1.59028e-015 -3.18055e-015 3.97569e-016 -1.59028e-015 -3.18055e-015 3.97569e-016 -7.95139e-016 -3.18055e-015 -53.8727 -31.3445 -90.5647 -8.24465 45.4995 64.54 -8.93801 30.8038 -41.1111 1.56614e-006 -1.7411e-006 4.55625e-006 53.84 -31.3498 90.5332 8.20245 45.4964 -64.5069 8.92448 30.8021 41.0968 -2.34289e-006 2.17805e-006 8.49134e-007 
-0.783598 9.46613 21.626 -1.83715e-015 36.4338 180 -0.343541 15.0865 0.00138795 -0.727648 30.1728 0.106368 -0.727644 30.1727 0.106366 2.56552e-005 15.1773 3.69986e-006 7.4685e-009 10.4227 -3.59109e-007 13.582 3.27744 -34.1106 34.7744 -22.6334 13.529 -6.56957 1.26754 -1.08388 -2.33429 -21.948 10.8153 7.95139e-016 0 6.36111e-015 -8.82781e-032 1.59028e-015 3.18055e-015 2.38542e-015 1.59028e-015 -3.18055e-015 7.95139e-016 0 6.36111e-015 -0.0128036 0.00232925 8.69626e-005 8.82781e-032 1.59028e-015 -3.18055e-015 7.95139e-016 0 6.36111e-015 -0.0160298 0.00299185 0.000858728 -8.82781e-032 1.59028e-015 3.18055e-015 7.95139e-016 0 6.36111e-015 -0.0126289 0.00312918 0.00283479 7.95139e-016 1.59028e-015 3.18055e-015 7.95139e-016 0 6.36111e-015 -8.82781e-032 1.59028e-015 3.18055e-015 2.38542e-015 1.59028e-015 -3.18055e-015 -13.3884 4.36449 29.5808 -33.823 -23.9412 -9.42452 6.1304 1.17576 1.24299 2.21174 -22.6233 -12.8187 -3.53113e-031 3.18055e-015 6.36111e-015 2.64834e-031 -1.59028e-015 9.54166e-015 1.59028e-015 0 9.54166e-015 -3.53113e-031 3.18055e-015 6.36111e-015 0.0129425 0.00231391 -8.87597e-005 -1.59028e-015 1.59028e-015 -0 -3.53113e-031 3.18055e-015 6.36111e-015 0.0163007 0.00302283 -0.000882778 7.95139e-016 -2.54444e-014 -0 -3.53113e-031 3.18055e-015 6.36111e-015 0.0145548 0.00367399 -0.00326132 2.38542e-015 -1.59028e-015 3.18055e-015 -3.53113e-031 3.18055e-015 6.36111e-015 2.64834e-031 -1.59028e-015 9.54166e-015 1.59028e-015 0 9.54166e-015 -48.408 -34.3663 -85.6556 -4.46289 46.3473 58.3104 -10.9909 29.0954 -37.0055 -1.07832e-007 -3.90296e-006 1.53006e-005 48.3765 -34.3672 85.6225 4.42515 46.3419 -58.2805 10.978 29.093 36.9929 6.36111e-015 4.77083e-015 -0 
-0.783616 9.58075 21.325 -1.65363e-015 37.3918 180 -0.343699 14.9902 0.00159715 -0.727467 29.9803 0.10601 -0.727464 29.9801 0.106009 2.47191e-005 14.6301 3.69094e-006 -1.03485e-007 10.0375 -2.90001e-007 13.3538 3.80692 -34.0359 34.7744 -22.6334 13.529 -6.56962 1.26752 -1.08388 -3.00905 -21.236 10.2587 -8.03629e-006 3.64267e-006 -3.74242e-006 -2.84878e-008 5.83408e-007 -4.72069e-006 0 0 -3.18055e-015 -8.03629e-006 3.64267e-006 -3.74242e-006 -0.0128353 0.00232783 8.3135e-005 -1.13822e-007 -5.91453e-008 -2.93037e-006 -8.03629e-006 3.64267e-006 -3.74242e-006 -0.016057 0.00299917 0.000858995 -7.95139e-016 0 6.36111e-015 -8.03629e-006 3.64267e-006 -3.74242e-006 -0.0125874 0.00312361 0.00283195 -3.67949e-006 3.33671e-006 3.39366e-006 -8.03629e-006 3.64267e-006 -3.74242e-006 -2.84878e-008 5.83408e-007 -4.72069e-006 0 0 -3.18055e-015 -13.2047 4.84694 29.473 -33.8231 -23.9412 -9.42454 6.13042 1.17578 1.24297 2.91209 -21.8975 -12.1597 6.71965e-006 -3.89535e-006 -5.22222e-007 -1.59028e-015 -3.18055e-015 3.18055e-015 -2.1818e-006 -7.69356e-006 -2.81228e-006 6.71965e-006 -3.89535e-006 -5.22222e-007 0.0129549 0.00231661 -9.36807e-005 -8.3999e-007 -3.35981e-006 6.52441e-008 6.71965e-006 -3.89535e-006 -5.22222e-007 0.0163484 0.00303172 -0.000875294 -1.27744e-006 -3.38159e-006 6.25775e-006 6.71965e-006 -3.89535e-006 -5.22222e-007 0.0145821 0.00368194 -0.00327251 -1.67999e-006 -4.04065e-006 1.30463e-007 6.71965e-006 -3.89535e-006 -5.22222e-007 -1.59028e-015 -3.18055e-015 3.18055e-015 -2.1818e-006 -7.69356e-006 -2.81228e-006 -48.3425 -33.5694 -85.2815 -4.76847 46.8577 58.5134 -11.3758 28.8314 -36.6207 -0 -2.09039e-008 -0 48.3121 -33.5708 85.2498 4.73227 46.8524 -58.4844 11.3634 28.829 36.6084 -7.78861e-007 7.93496e-007 2.88082e-007 
